<svg width="100%" height="100%" viewBox="0 0 1000 1000" version="1.1" xmlns="http://www.w3.org/2000/svg" xml:space="preserve" style="fill-rule:evenodd;clip-rule:evenodd;stroke-linejoin:round;stroke-miterlimit:2;"><g id="unit.link"><path id="logo" d="M60.887,353.331c-80.785,80.784 -80.785,211.957 -0,292.742l292.742,292.742c80.784,80.784 211.958,80.784 292.742,-0l292.742,-292.742c80.785,-80.785 80.785,-211.958 0,-292.742l-292.742,-292.743c-80.784,-80.784 -211.958,-80.784 -292.742,0l-292.742,292.743Zm439.113,-205.164c-194.182,-0 -351.833,157.651 -351.833,351.833c-0,194.182 157.651,351.833 351.833,351.833c0,0 -0,85.082 -0,85.082c36.99,0 73.98,-14.098 102.177,-42.294l133.251,-133.252c9.089,-8.191 17.749,-16.85 25.941,-25.941l133.55,-133.549c56.393,-56.393 56.393,-147.961 0,-204.354l-141.883,-141.883c-2.84,-2.941 -5.732,-5.833 -8.678,-8.678l-142.181,-142.182c-28.197,-28.196 -65.187,-42.294 -102.177,-42.294l0,85.679Zm-0,41.666c171.186,0 310.167,138.981 310.167,310.167c-0,171.186 -138.981,310.167 -310.167,310.167c-171.186,-0 -310.167,-138.981 -310.167,-310.167c0,-171.186 138.981,-310.167 310.167,-310.167Zm-0,265.86l-40.892,-41.1c-0.019,-0.019 -0.037,-0.038 -0.056,-0.056c-47.2,-47.201 -123.727,-47.201 -170.927,-0c-47.168,47.168 -47.168,123.758 0,170.926c47.2,47.201 123.727,47.201 170.927,0c0.019,-0.018 0.037,-0.037 0.056,-0.056l40.892,-41.1l40.892,41.1c0.019,0.019 0.037,0.038 0.056,0.056c47.2,47.201 123.727,47.201 170.927,0c47.168,-47.168 47.168,-123.758 -0,-170.926c-47.2,-47.201 -123.727,-47.201 -170.927,-0c-0.019,0.018 -0.037,0.037 -0.056,0.056l-40.892,41.1Zm44.082,44.307l41.077,41.287c22.794,22.775 59.735,22.769 82.522,-0.018c22.777,-22.777 22.777,-59.761 -0,-82.538c-22.787,-22.787 -59.728,-22.793 -82.522,-0.018l-41.077,41.287Zm-88.164,0l-41.077,-41.287c-22.794,-22.775 -59.735,-22.769 -82.522,0.018c-22.777,22.777 -22.777,59.761 0,82.538c22.787,22.787 59.728,22.793 82.522,0.018l41.077,-41.287Z" style="fill:#00bbff;"/></g></svg>